<mxfile host="app.diagrams.net" modified="2024-05-30T18:39:43.256Z" agent="Mozilla/5.0 (X11; Linux x86_64) AppleWebKit/537.36 (KHTML, like Gecko) Chrome/125.0.0.0 Safari/537.36" etag="JHTaM3DQmT7HZN385w_r" version="24.4.10" type="device">
  <diagram name="Page-1" id="3cpkXLwyK8GX5LqtrEb9">
    <mxGraphModel dx="674" dy="943" grid="1" gridSize="10" guides="1" tooltips="1" connect="1" arrows="1" fold="1" page="1" pageScale="1" pageWidth="850" pageHeight="1100" math="0" shadow="0">
      <root>
        <mxCell id="0" />
        <mxCell id="1" parent="0" />
        <mxCell id="Df5BAY0ZRy3SLglRoj6B-2" value="" style="rounded=1;whiteSpace=wrap;html=1;fillColor=#ffe6cc;strokeColor=#d79b00;" parent="1" vertex="1">
          <mxGeometry x="750" y="360" width="310" height="90" as="geometry" />
        </mxCell>
        <mxCell id="Df5BAY0ZRy3SLglRoj6B-3" value="" style="rounded=1;whiteSpace=wrap;html=1;fillColor=#d5e8d4;strokeColor=#82b366;" parent="1" vertex="1">
          <mxGeometry x="30" y="360" width="310" height="90" as="geometry" />
        </mxCell>
        <mxCell id="Df5BAY0ZRy3SLglRoj6B-4" value="" style="rounded=1;whiteSpace=wrap;html=1;fillColor=#eeeeee;strokeColor=#36393d;" parent="1" vertex="1">
          <mxGeometry x="390" y="360" width="310" height="90" as="geometry" />
        </mxCell>
        <mxCell id="Df5BAY0ZRy3SLglRoj6B-5" value="" style="rounded=1;whiteSpace=wrap;html=1;fillColor=#cce5ff;strokeColor=#36393d;" parent="1" vertex="1">
          <mxGeometry x="1110" y="250" width="310" height="90" as="geometry" />
        </mxCell>
        <mxCell id="Df5BAY0ZRy3SLglRoj6B-6" value="" style="rounded=1;whiteSpace=wrap;html=1;fillColor=#cdeb8b;strokeColor=#36393d;" parent="1" vertex="1">
          <mxGeometry x="750" y="250" width="310" height="90" as="geometry" />
        </mxCell>
        <mxCell id="Df5BAY0ZRy3SLglRoj6B-7" value="" style="rounded=1;whiteSpace=wrap;html=1;fillColor=#ffff88;strokeColor=#36393d;" parent="1" vertex="1">
          <mxGeometry x="390" y="250" width="310" height="90" as="geometry" />
        </mxCell>
        <mxCell id="Df5BAY0ZRy3SLglRoj6B-8" value="" style="rounded=1;whiteSpace=wrap;html=1;fillColor=#bac8d3;strokeColor=#23445d;" parent="1" vertex="1">
          <mxGeometry x="30" y="250" width="310" height="90" as="geometry" />
        </mxCell>
        <mxCell id="Df5BAY0ZRy3SLglRoj6B-9" value="" style="rounded=1;whiteSpace=wrap;html=1;fillColor=#d0cee2;strokeColor=#56517e;" parent="1" vertex="1">
          <mxGeometry x="1110" y="150" width="310" height="90" as="geometry" />
        </mxCell>
        <mxCell id="Df5BAY0ZRy3SLglRoj6B-10" value="" style="rounded=1;whiteSpace=wrap;html=1;fillColor=#b1ddf0;strokeColor=#10739e;" parent="1" vertex="1">
          <mxGeometry x="750" y="150" width="310" height="90" as="geometry" />
        </mxCell>
        <mxCell id="Df5BAY0ZRy3SLglRoj6B-11" value="" style="rounded=1;whiteSpace=wrap;html=1;fillColor=#f8cecc;strokeColor=#b85450;" parent="1" vertex="1">
          <mxGeometry x="390" y="150" width="310" height="90" as="geometry" />
        </mxCell>
        <mxCell id="Df5BAY0ZRy3SLglRoj6B-12" value="" style="rounded=1;whiteSpace=wrap;html=1;fillColor=#fff2cc;strokeColor=#d6b656;" parent="1" vertex="1">
          <mxGeometry x="30" y="150" width="310" height="90" as="geometry" />
        </mxCell>
        <mxCell id="Df5BAY0ZRy3SLglRoj6B-13" value="" style="rounded=1;whiteSpace=wrap;html=1;fillColor=#ffe6cc;strokeColor=#d79b00;" parent="1" vertex="1">
          <mxGeometry x="1110" y="50" width="310" height="90" as="geometry" />
        </mxCell>
        <mxCell id="Df5BAY0ZRy3SLglRoj6B-14" value="" style="rounded=1;whiteSpace=wrap;html=1;fillColor=#d5e8d4;strokeColor=#82b366;" parent="1" vertex="1">
          <mxGeometry x="750" y="50" width="310" height="90" as="geometry" />
        </mxCell>
        <mxCell id="Df5BAY0ZRy3SLglRoj6B-15" value="" style="rounded=1;whiteSpace=wrap;html=1;fillColor=#dae8fc;strokeColor=#6c8ebf;" parent="1" vertex="1">
          <mxGeometry x="395" y="50" width="310" height="90" as="geometry" />
        </mxCell>
        <mxCell id="Df5BAY0ZRy3SLglRoj6B-16" value="" style="rounded=1;whiteSpace=wrap;html=1;fillColor=#f5f5f5;fontColor=#333333;strokeColor=#666666;" parent="1" vertex="1">
          <mxGeometry x="30" y="50" width="310" height="90" as="geometry" />
        </mxCell>
        <mxCell id="Df5BAY0ZRy3SLglRoj6B-17" value="&lt;font style=&quot;font-size: 10px;&quot;&gt;Temussi A.&lt;br&gt;&lt;/font&gt;" style="rounded=1;whiteSpace=wrap;html=1;fillColor=none;" parent="1" vertex="1">
          <mxGeometry x="40" y="70" width="60" height="20" as="geometry" />
        </mxCell>
        <mxCell id="Df5BAY0ZRy3SLglRoj6B-18" value="&lt;font style=&quot;font-size: 10px;&quot;&gt;Pirisi N.&lt;br&gt;&lt;/font&gt;" style="rounded=1;whiteSpace=wrap;html=1;fillColor=none;" parent="1" vertex="1">
          <mxGeometry x="40" y="90" width="60" height="20" as="geometry" />
        </mxCell>
        <mxCell id="Df5BAY0ZRy3SLglRoj6B-19" value="&lt;font style=&quot;font-size: 10px;&quot;&gt;De Santis F.&lt;br&gt;&lt;/font&gt;" style="rounded=1;whiteSpace=wrap;html=1;fillColor=none;" parent="1" vertex="1">
          <mxGeometry x="40" y="110" width="60" height="20" as="geometry" />
        </mxCell>
        <mxCell id="Df5BAY0ZRy3SLglRoj6B-26" value="&lt;b&gt;Girone A&lt;/b&gt;" style="text;html=1;align=center;verticalAlign=middle;whiteSpace=wrap;rounded=0;" parent="1" vertex="1">
          <mxGeometry x="40" y="50" width="60" height="20" as="geometry" />
        </mxCell>
        <mxCell id="Df5BAY0ZRy3SLglRoj6B-27" value="Partita 1" style="text;html=1;align=center;verticalAlign=middle;whiteSpace=wrap;rounded=0;" parent="1" vertex="1">
          <mxGeometry x="130" y="50" width="60" height="20" as="geometry" />
        </mxCell>
        <mxCell id="Df5BAY0ZRy3SLglRoj6B-28" value="Partita 2" style="text;html=1;align=center;verticalAlign=middle;whiteSpace=wrap;rounded=0;" parent="1" vertex="1">
          <mxGeometry x="200" y="50" width="60" height="20" as="geometry" />
        </mxCell>
        <mxCell id="Df5BAY0ZRy3SLglRoj6B-29" value="Partita 3" style="text;html=1;align=center;verticalAlign=middle;whiteSpace=wrap;rounded=0;" parent="1" vertex="1">
          <mxGeometry x="270" y="50" width="60" height="20" as="geometry" />
        </mxCell>
        <mxCell id="Df5BAY0ZRy3SLglRoj6B-30" value="&lt;font style=&quot;font-size: 10px;&quot;&gt;Cabras A.&lt;/font&gt;" style="rounded=1;whiteSpace=wrap;html=1;fillColor=none;" parent="1" vertex="1">
          <mxGeometry x="1120" y="70" width="60" height="20" as="geometry" />
        </mxCell>
        <mxCell id="Df5BAY0ZRy3SLglRoj6B-31" value="&lt;font style=&quot;font-size: 10px;&quot;&gt;Pilo F.&lt;br&gt;&lt;/font&gt;" style="rounded=1;whiteSpace=wrap;html=1;fillColor=none;" parent="1" vertex="1">
          <mxGeometry x="1120" y="90" width="60" height="20" as="geometry" />
        </mxCell>
        <mxCell id="Df5BAY0ZRy3SLglRoj6B-32" value="&lt;font style=&quot;font-size: 10px;&quot;&gt;Pedoni A.&lt;br&gt;&lt;/font&gt;" style="rounded=1;whiteSpace=wrap;html=1;fillColor=none;" parent="1" vertex="1">
          <mxGeometry x="1120" y="110" width="60" height="20" as="geometry" />
        </mxCell>
        <mxCell id="Df5BAY0ZRy3SLglRoj6B-39" value="&lt;b&gt;Girone D&lt;br&gt;&lt;/b&gt;" style="text;html=1;align=center;verticalAlign=middle;whiteSpace=wrap;rounded=0;" parent="1" vertex="1">
          <mxGeometry x="1120" y="50" width="60" height="20" as="geometry" />
        </mxCell>
        <mxCell id="Df5BAY0ZRy3SLglRoj6B-40" value="Partita 1" style="text;html=1;align=center;verticalAlign=middle;whiteSpace=wrap;rounded=0;" parent="1" vertex="1">
          <mxGeometry x="1210" y="50" width="60" height="20" as="geometry" />
        </mxCell>
        <mxCell id="Df5BAY0ZRy3SLglRoj6B-41" value="Partita 2" style="text;html=1;align=center;verticalAlign=middle;whiteSpace=wrap;rounded=0;" parent="1" vertex="1">
          <mxGeometry x="1280" y="50" width="60" height="20" as="geometry" />
        </mxCell>
        <mxCell id="Df5BAY0ZRy3SLglRoj6B-42" value="Partita 3" style="text;html=1;align=center;verticalAlign=middle;whiteSpace=wrap;rounded=0;" parent="1" vertex="1">
          <mxGeometry x="1350" y="50" width="60" height="20" as="geometry" />
        </mxCell>
        <mxCell id="Df5BAY0ZRy3SLglRoj6B-43" value="&lt;font style=&quot;font-size: 10px;&quot;&gt;Sollai Fulv.&lt;br&gt;&lt;/font&gt;" style="rounded=1;whiteSpace=wrap;html=1;fillColor=none;" parent="1" vertex="1">
          <mxGeometry x="760" y="170" width="60" height="20" as="geometry" />
        </mxCell>
        <mxCell id="Df5BAY0ZRy3SLglRoj6B-44" value="&lt;font style=&quot;font-size: 10px;&quot;&gt;Pala Matteo&lt;br&gt;&lt;/font&gt;" style="rounded=1;whiteSpace=wrap;html=1;fillColor=none;" parent="1" vertex="1">
          <mxGeometry x="760" y="190" width="60" height="20" as="geometry" />
        </mxCell>
        <mxCell id="Df5BAY0ZRy3SLglRoj6B-45" value="&lt;font style=&quot;font-size: 10px;&quot;&gt;Sechi Gigi&lt;br&gt;&lt;/font&gt;" style="rounded=1;whiteSpace=wrap;html=1;fillColor=none;" parent="1" vertex="1">
          <mxGeometry x="760" y="210" width="60" height="20" as="geometry" />
        </mxCell>
        <mxCell id="Df5BAY0ZRy3SLglRoj6B-52" value="&lt;b&gt;Girone G&lt;br&gt;&lt;/b&gt;" style="text;html=1;align=center;verticalAlign=middle;whiteSpace=wrap;rounded=0;" parent="1" vertex="1">
          <mxGeometry x="760" y="150" width="60" height="20" as="geometry" />
        </mxCell>
        <mxCell id="Df5BAY0ZRy3SLglRoj6B-53" value="Partita 1" style="text;html=1;align=center;verticalAlign=middle;whiteSpace=wrap;rounded=0;" parent="1" vertex="1">
          <mxGeometry x="850" y="150" width="60" height="20" as="geometry" />
        </mxCell>
        <mxCell id="Df5BAY0ZRy3SLglRoj6B-54" value="Partita 2" style="text;html=1;align=center;verticalAlign=middle;whiteSpace=wrap;rounded=0;" parent="1" vertex="1">
          <mxGeometry x="920" y="150" width="60" height="20" as="geometry" />
        </mxCell>
        <mxCell id="Df5BAY0ZRy3SLglRoj6B-55" value="Partita 3" style="text;html=1;align=center;verticalAlign=middle;whiteSpace=wrap;rounded=0;" parent="1" vertex="1">
          <mxGeometry x="990" y="150" width="60" height="20" as="geometry" />
        </mxCell>
        <mxCell id="Df5BAY0ZRy3SLglRoj6B-56" value="&lt;font style=&quot;font-size: 10px;&quot;&gt;Giua Luc.&lt;br&gt;&lt;/font&gt;" style="rounded=1;whiteSpace=wrap;html=1;fillColor=none;" parent="1" vertex="1">
          <mxGeometry x="400" y="270" width="60" height="20" as="geometry" />
        </mxCell>
        <mxCell id="Df5BAY0ZRy3SLglRoj6B-57" value="&lt;font style=&quot;font-size: 10px;&quot;&gt;Tanda Mar.&lt;br&gt;&lt;/font&gt;" style="rounded=1;whiteSpace=wrap;html=1;fillColor=none;" parent="1" vertex="1">
          <mxGeometry x="400" y="290" width="60" height="20" as="geometry" />
        </mxCell>
        <mxCell id="Df5BAY0ZRy3SLglRoj6B-58" value="&lt;font style=&quot;font-size: 10px;&quot;&gt;Cardin G.&lt;br&gt;&lt;/font&gt;" style="rounded=1;whiteSpace=wrap;html=1;fillColor=none;" parent="1" vertex="1">
          <mxGeometry x="400" y="310" width="60" height="20" as="geometry" />
        </mxCell>
        <mxCell id="Df5BAY0ZRy3SLglRoj6B-65" value="&lt;b&gt;Girone J&lt;br&gt;&lt;/b&gt;" style="text;html=1;align=center;verticalAlign=middle;whiteSpace=wrap;rounded=0;" parent="1" vertex="1">
          <mxGeometry x="400" y="250" width="60" height="20" as="geometry" />
        </mxCell>
        <mxCell id="Df5BAY0ZRy3SLglRoj6B-66" value="Partita 1" style="text;html=1;align=center;verticalAlign=middle;whiteSpace=wrap;rounded=0;" parent="1" vertex="1">
          <mxGeometry x="490" y="250" width="60" height="20" as="geometry" />
        </mxCell>
        <mxCell id="Df5BAY0ZRy3SLglRoj6B-67" value="Partita 2" style="text;html=1;align=center;verticalAlign=middle;whiteSpace=wrap;rounded=0;" parent="1" vertex="1">
          <mxGeometry x="560" y="250" width="60" height="20" as="geometry" />
        </mxCell>
        <mxCell id="Df5BAY0ZRy3SLglRoj6B-68" value="Partita 3" style="text;html=1;align=center;verticalAlign=middle;whiteSpace=wrap;rounded=0;" parent="1" vertex="1">
          <mxGeometry x="630" y="250" width="60" height="20" as="geometry" />
        </mxCell>
        <mxCell id="Df5BAY0ZRy3SLglRoj6B-69" value="&lt;font style=&quot;font-size: 10px;&quot;&gt;Sotgiu Fabio&lt;br&gt;&lt;/font&gt;" style="rounded=1;whiteSpace=wrap;html=1;fillColor=none;" parent="1" vertex="1">
          <mxGeometry x="40" y="380" width="60" height="20" as="geometry" />
        </mxCell>
        <mxCell id="Df5BAY0ZRy3SLglRoj6B-70" value="&lt;font style=&quot;font-size: 10px;&quot;&gt;Gaddia R.&lt;br&gt;&lt;/font&gt;" style="rounded=1;whiteSpace=wrap;html=1;fillColor=none;" parent="1" vertex="1">
          <mxGeometry x="40" y="400" width="60" height="20" as="geometry" />
        </mxCell>
        <mxCell id="Df5BAY0ZRy3SLglRoj6B-71" value="&lt;font style=&quot;font-size: 10px;&quot;&gt;Puggioni P.&lt;br&gt;&lt;/font&gt;" style="rounded=1;whiteSpace=wrap;html=1;fillColor=none;" parent="1" vertex="1">
          <mxGeometry x="40" y="420" width="60" height="20" as="geometry" />
        </mxCell>
        <mxCell id="Df5BAY0ZRy3SLglRoj6B-78" value="&lt;b&gt;Girone M&lt;br&gt;&lt;/b&gt;" style="text;html=1;align=center;verticalAlign=middle;whiteSpace=wrap;rounded=0;" parent="1" vertex="1">
          <mxGeometry x="40" y="360" width="60" height="20" as="geometry" />
        </mxCell>
        <mxCell id="Df5BAY0ZRy3SLglRoj6B-79" value="Partita 1" style="text;html=1;align=center;verticalAlign=middle;whiteSpace=wrap;rounded=0;" parent="1" vertex="1">
          <mxGeometry x="130" y="360" width="60" height="20" as="geometry" />
        </mxCell>
        <mxCell id="Df5BAY0ZRy3SLglRoj6B-80" value="Partita 2" style="text;html=1;align=center;verticalAlign=middle;whiteSpace=wrap;rounded=0;" parent="1" vertex="1">
          <mxGeometry x="200" y="360" width="60" height="20" as="geometry" />
        </mxCell>
        <mxCell id="Df5BAY0ZRy3SLglRoj6B-81" value="Partita 3" style="text;html=1;align=center;verticalAlign=middle;whiteSpace=wrap;rounded=0;" parent="1" vertex="1">
          <mxGeometry x="270" y="360" width="60" height="20" as="geometry" />
        </mxCell>
        <mxCell id="Df5BAY0ZRy3SLglRoj6B-82" value="&lt;font style=&quot;font-size: 10px;&quot;&gt;Coghene A.&lt;br&gt;&lt;/font&gt;" style="rounded=1;whiteSpace=wrap;html=1;fillColor=none;" parent="1" vertex="1">
          <mxGeometry x="400" y="70" width="60" height="20" as="geometry" />
        </mxCell>
        <mxCell id="Df5BAY0ZRy3SLglRoj6B-83" value="&lt;font style=&quot;font-size: 10px;&quot;&gt;Corrias A.&lt;br&gt;&lt;/font&gt;" style="rounded=1;whiteSpace=wrap;html=1;fillColor=none;" parent="1" vertex="1">
          <mxGeometry x="400" y="90" width="60" height="20" as="geometry" />
        </mxCell>
        <mxCell id="Df5BAY0ZRy3SLglRoj6B-84" value="&lt;font style=&quot;font-size: 10px;&quot;&gt;Accalai F.&lt;br&gt;&lt;/font&gt;" style="rounded=1;whiteSpace=wrap;html=1;fillColor=none;" parent="1" vertex="1">
          <mxGeometry x="400" y="110" width="60" height="20" as="geometry" />
        </mxCell>
        <mxCell id="Df5BAY0ZRy3SLglRoj6B-91" value="&lt;b&gt;Girone B&lt;br&gt;&lt;/b&gt;" style="text;html=1;align=center;verticalAlign=middle;whiteSpace=wrap;rounded=0;" parent="1" vertex="1">
          <mxGeometry x="400" y="50" width="60" height="20" as="geometry" />
        </mxCell>
        <mxCell id="Df5BAY0ZRy3SLglRoj6B-92" value="Partita 1" style="text;html=1;align=center;verticalAlign=middle;whiteSpace=wrap;rounded=0;" parent="1" vertex="1">
          <mxGeometry x="490" y="50" width="60" height="20" as="geometry" />
        </mxCell>
        <mxCell id="Df5BAY0ZRy3SLglRoj6B-93" value="Partita 2" style="text;html=1;align=center;verticalAlign=middle;whiteSpace=wrap;rounded=0;" parent="1" vertex="1">
          <mxGeometry x="560" y="50" width="60" height="20" as="geometry" />
        </mxCell>
        <mxCell id="Df5BAY0ZRy3SLglRoj6B-94" value="Partita 3" style="text;html=1;align=center;verticalAlign=middle;whiteSpace=wrap;rounded=0;" parent="1" vertex="1">
          <mxGeometry x="630" y="50" width="60" height="20" as="geometry" />
        </mxCell>
        <mxCell id="Df5BAY0ZRy3SLglRoj6B-95" value="&lt;font style=&quot;font-size: 10px;&quot;&gt;Carta Ales.&lt;br&gt;&lt;/font&gt;" style="rounded=1;whiteSpace=wrap;html=1;fillColor=none;" parent="1" vertex="1">
          <mxGeometry x="40" y="170" width="60" height="20" as="geometry" />
        </mxCell>
        <mxCell id="Df5BAY0ZRy3SLglRoj6B-96" value="&lt;font style=&quot;font-size: 10px;&quot;&gt;Firinu David&lt;br&gt;&lt;/font&gt;" style="rounded=1;whiteSpace=wrap;html=1;fillColor=none;" parent="1" vertex="1">
          <mxGeometry x="40" y="190" width="60" height="20" as="geometry" />
        </mxCell>
        <mxCell id="Df5BAY0ZRy3SLglRoj6B-97" value="&lt;font style=&quot;font-size: 10px;&quot;&gt;Soro Pierp.&lt;br&gt;&lt;/font&gt;" style="rounded=1;whiteSpace=wrap;html=1;fillColor=none;" parent="1" vertex="1">
          <mxGeometry x="40" y="210" width="60" height="20" as="geometry" />
        </mxCell>
        <mxCell id="Df5BAY0ZRy3SLglRoj6B-104" value="&lt;b&gt;Girone E&lt;br&gt;&lt;/b&gt;" style="text;html=1;align=center;verticalAlign=middle;whiteSpace=wrap;rounded=0;" parent="1" vertex="1">
          <mxGeometry x="40" y="150" width="60" height="20" as="geometry" />
        </mxCell>
        <mxCell id="Df5BAY0ZRy3SLglRoj6B-105" value="Partita 1" style="text;html=1;align=center;verticalAlign=middle;whiteSpace=wrap;rounded=0;" parent="1" vertex="1">
          <mxGeometry x="130" y="150" width="60" height="20" as="geometry" />
        </mxCell>
        <mxCell id="Df5BAY0ZRy3SLglRoj6B-106" value="Partita 2" style="text;html=1;align=center;verticalAlign=middle;whiteSpace=wrap;rounded=0;" parent="1" vertex="1">
          <mxGeometry x="200" y="150" width="60" height="20" as="geometry" />
        </mxCell>
        <mxCell id="Df5BAY0ZRy3SLglRoj6B-107" value="Partita 3" style="text;html=1;align=center;verticalAlign=middle;whiteSpace=wrap;rounded=0;" parent="1" vertex="1">
          <mxGeometry x="270" y="150" width="60" height="20" as="geometry" />
        </mxCell>
        <mxCell id="Df5BAY0ZRy3SLglRoj6B-108" value="&lt;font style=&quot;font-size: 10px;&quot;&gt;Cossu Salv.&lt;br&gt;&lt;/font&gt;" style="rounded=1;whiteSpace=wrap;html=1;fillColor=none;" parent="1" vertex="1">
          <mxGeometry x="1120" y="170" width="60" height="20" as="geometry" />
        </mxCell>
        <mxCell id="Df5BAY0ZRy3SLglRoj6B-109" value="&lt;font style=&quot;font-size: 10px;&quot;&gt;Muroni Bru.&lt;br&gt;&lt;/font&gt;" style="rounded=1;whiteSpace=wrap;html=1;fillColor=none;" parent="1" vertex="1">
          <mxGeometry x="1120" y="190" width="60" height="20" as="geometry" />
        </mxCell>
        <mxCell id="Df5BAY0ZRy3SLglRoj6B-110" value="&lt;font style=&quot;font-size: 10px;&quot;&gt;Chighine S.&lt;br&gt;&lt;/font&gt;" style="rounded=1;whiteSpace=wrap;html=1;fillColor=none;" parent="1" vertex="1">
          <mxGeometry x="1120" y="210" width="60" height="20" as="geometry" />
        </mxCell>
        <mxCell id="Df5BAY0ZRy3SLglRoj6B-117" value="&lt;b&gt;Girone H&lt;br&gt;&lt;/b&gt;" style="text;html=1;align=center;verticalAlign=middle;whiteSpace=wrap;rounded=0;" parent="1" vertex="1">
          <mxGeometry x="1120" y="150" width="60" height="20" as="geometry" />
        </mxCell>
        <mxCell id="Df5BAY0ZRy3SLglRoj6B-118" value="Partita 1" style="text;html=1;align=center;verticalAlign=middle;whiteSpace=wrap;rounded=0;" parent="1" vertex="1">
          <mxGeometry x="1210" y="150" width="60" height="20" as="geometry" />
        </mxCell>
        <mxCell id="Df5BAY0ZRy3SLglRoj6B-119" value="Partita 2" style="text;html=1;align=center;verticalAlign=middle;whiteSpace=wrap;rounded=0;" parent="1" vertex="1">
          <mxGeometry x="1280" y="150" width="60" height="20" as="geometry" />
        </mxCell>
        <mxCell id="Df5BAY0ZRy3SLglRoj6B-120" value="Partita 3" style="text;html=1;align=center;verticalAlign=middle;whiteSpace=wrap;rounded=0;" parent="1" vertex="1">
          <mxGeometry x="1350" y="150" width="60" height="20" as="geometry" />
        </mxCell>
        <mxCell id="Df5BAY0ZRy3SLglRoj6B-121" value="&lt;font style=&quot;font-size: 10px;&quot;&gt;Delogu Mar.&lt;br&gt;&lt;/font&gt;" style="rounded=1;whiteSpace=wrap;html=1;fillColor=none;" parent="1" vertex="1">
          <mxGeometry x="760" y="270" width="60" height="20" as="geometry" />
        </mxCell>
        <mxCell id="Df5BAY0ZRy3SLglRoj6B-122" value="&lt;font style=&quot;font-size: 10px;&quot;&gt;Manca Ant.&lt;br&gt;&lt;/font&gt;" style="rounded=1;whiteSpace=wrap;html=1;fillColor=none;" parent="1" vertex="1">
          <mxGeometry x="760" y="290" width="60" height="20" as="geometry" />
        </mxCell>
        <mxCell id="Df5BAY0ZRy3SLglRoj6B-123" value="&lt;font style=&quot;font-size: 10px;&quot;&gt;Angius Ef.&lt;br&gt;&lt;/font&gt;" style="rounded=1;whiteSpace=wrap;html=1;fillColor=none;" parent="1" vertex="1">
          <mxGeometry x="760" y="310" width="60" height="20" as="geometry" />
        </mxCell>
        <mxCell id="Df5BAY0ZRy3SLglRoj6B-130" value="&lt;b&gt;Girone K&lt;br&gt;&lt;/b&gt;" style="text;html=1;align=center;verticalAlign=middle;whiteSpace=wrap;rounded=0;" parent="1" vertex="1">
          <mxGeometry x="760" y="250" width="60" height="20" as="geometry" />
        </mxCell>
        <mxCell id="Df5BAY0ZRy3SLglRoj6B-131" value="Partita 1" style="text;html=1;align=center;verticalAlign=middle;whiteSpace=wrap;rounded=0;" parent="1" vertex="1">
          <mxGeometry x="850" y="250" width="60" height="20" as="geometry" />
        </mxCell>
        <mxCell id="Df5BAY0ZRy3SLglRoj6B-132" value="Partita 2" style="text;html=1;align=center;verticalAlign=middle;whiteSpace=wrap;rounded=0;" parent="1" vertex="1">
          <mxGeometry x="920" y="250" width="60" height="20" as="geometry" />
        </mxCell>
        <mxCell id="Df5BAY0ZRy3SLglRoj6B-133" value="Partita 3" style="text;html=1;align=center;verticalAlign=middle;whiteSpace=wrap;rounded=0;" parent="1" vertex="1">
          <mxGeometry x="990" y="250" width="60" height="20" as="geometry" />
        </mxCell>
        <mxCell id="Df5BAY0ZRy3SLglRoj6B-134" value="&lt;font style=&quot;font-size: 10px;&quot;&gt;Dettori Pier.&lt;br&gt;&lt;/font&gt;" style="rounded=1;whiteSpace=wrap;html=1;fillColor=none;" parent="1" vertex="1">
          <mxGeometry x="400" y="380" width="60" height="20" as="geometry" />
        </mxCell>
        <mxCell id="Df5BAY0ZRy3SLglRoj6B-135" value="&lt;font style=&quot;font-size: 10px;&quot;&gt;Di Pietro A.&lt;br&gt;&lt;/font&gt;" style="rounded=1;whiteSpace=wrap;html=1;fillColor=none;" parent="1" vertex="1">
          <mxGeometry x="400" y="400" width="60" height="20" as="geometry" />
        </mxCell>
        <mxCell id="Df5BAY0ZRy3SLglRoj6B-136" value="&lt;font style=&quot;font-size: 10px;&quot;&gt;Pietri Giaim&lt;br&gt;&lt;/font&gt;" style="rounded=1;whiteSpace=wrap;html=1;fillColor=none;" parent="1" vertex="1">
          <mxGeometry x="400" y="420" width="60" height="20" as="geometry" />
        </mxCell>
        <mxCell id="Df5BAY0ZRy3SLglRoj6B-143" value="&lt;b&gt;Girone N&lt;br&gt;&lt;/b&gt;" style="text;html=1;align=center;verticalAlign=middle;whiteSpace=wrap;rounded=0;" parent="1" vertex="1">
          <mxGeometry x="400" y="360" width="60" height="20" as="geometry" />
        </mxCell>
        <mxCell id="Df5BAY0ZRy3SLglRoj6B-144" value="Partita 1" style="text;html=1;align=center;verticalAlign=middle;whiteSpace=wrap;rounded=0;" parent="1" vertex="1">
          <mxGeometry x="490" y="360" width="60" height="20" as="geometry" />
        </mxCell>
        <mxCell id="Df5BAY0ZRy3SLglRoj6B-145" value="Partita 2" style="text;html=1;align=center;verticalAlign=middle;whiteSpace=wrap;rounded=0;" parent="1" vertex="1">
          <mxGeometry x="560" y="360" width="60" height="20" as="geometry" />
        </mxCell>
        <mxCell id="Df5BAY0ZRy3SLglRoj6B-146" value="Partita 3" style="text;html=1;align=center;verticalAlign=middle;whiteSpace=wrap;rounded=0;" parent="1" vertex="1">
          <mxGeometry x="630" y="360" width="60" height="20" as="geometry" />
        </mxCell>
        <mxCell id="Df5BAY0ZRy3SLglRoj6B-147" value="&lt;font style=&quot;font-size: 10px;&quot;&gt;Cossu Gab.&lt;br&gt;&lt;/font&gt;" style="rounded=1;whiteSpace=wrap;html=1;fillColor=none;" parent="1" vertex="1">
          <mxGeometry x="760" y="70" width="60" height="20" as="geometry" />
        </mxCell>
        <mxCell id="Df5BAY0ZRy3SLglRoj6B-148" value="&lt;font style=&quot;font-size: 10px;&quot;&gt;Rotelli A.&lt;br&gt;&lt;/font&gt;" style="rounded=1;whiteSpace=wrap;html=1;fillColor=none;" parent="1" vertex="1">
          <mxGeometry x="760" y="90" width="60" height="20" as="geometry" />
        </mxCell>
        <mxCell id="Df5BAY0ZRy3SLglRoj6B-149" value="&lt;font style=&quot;font-size: 10px;&quot;&gt;Masia F.&lt;br&gt;&lt;/font&gt;" style="rounded=1;whiteSpace=wrap;html=1;fillColor=none;" parent="1" vertex="1">
          <mxGeometry x="760" y="110" width="60" height="20" as="geometry" />
        </mxCell>
        <mxCell id="Df5BAY0ZRy3SLglRoj6B-156" value="&lt;b&gt;Girone C&lt;br&gt;&lt;/b&gt;" style="text;html=1;align=center;verticalAlign=middle;whiteSpace=wrap;rounded=0;" parent="1" vertex="1">
          <mxGeometry x="760" y="50" width="60" height="20" as="geometry" />
        </mxCell>
        <mxCell id="Df5BAY0ZRy3SLglRoj6B-157" value="Partita 1" style="text;html=1;align=center;verticalAlign=middle;whiteSpace=wrap;rounded=0;" parent="1" vertex="1">
          <mxGeometry x="850" y="50" width="60" height="20" as="geometry" />
        </mxCell>
        <mxCell id="Df5BAY0ZRy3SLglRoj6B-158" value="Partita 2" style="text;html=1;align=center;verticalAlign=middle;whiteSpace=wrap;rounded=0;" parent="1" vertex="1">
          <mxGeometry x="920" y="50" width="60" height="20" as="geometry" />
        </mxCell>
        <mxCell id="Df5BAY0ZRy3SLglRoj6B-159" value="Partita 3" style="text;html=1;align=center;verticalAlign=middle;whiteSpace=wrap;rounded=0;" parent="1" vertex="1">
          <mxGeometry x="990" y="50" width="60" height="20" as="geometry" />
        </mxCell>
        <mxCell id="Df5BAY0ZRy3SLglRoj6B-160" value="&lt;font style=&quot;font-size: 10px;&quot;&gt;Cossu Giu.&lt;br&gt;&lt;/font&gt;" style="rounded=1;whiteSpace=wrap;html=1;fillColor=none;" parent="1" vertex="1">
          <mxGeometry x="400" y="170" width="60" height="20" as="geometry" />
        </mxCell>
        <mxCell id="Df5BAY0ZRy3SLglRoj6B-161" value="&lt;font style=&quot;font-size: 10px;&quot;&gt;Pintus Ang. &lt;br&gt;&lt;/font&gt;" style="rounded=1;whiteSpace=wrap;html=1;fillColor=none;" parent="1" vertex="1">
          <mxGeometry x="400" y="190" width="60" height="20" as="geometry" />
        </mxCell>
        <mxCell id="Df5BAY0ZRy3SLglRoj6B-162" value="&lt;font style=&quot;font-size: 10px;&quot;&gt;Pani Rober.&lt;br&gt;&lt;/font&gt;" style="rounded=1;whiteSpace=wrap;html=1;fillColor=none;" parent="1" vertex="1">
          <mxGeometry x="400" y="210" width="60" height="20" as="geometry" />
        </mxCell>
        <mxCell id="Df5BAY0ZRy3SLglRoj6B-169" value="&lt;b&gt;Girone F&lt;br&gt;&lt;/b&gt;" style="text;html=1;align=center;verticalAlign=middle;whiteSpace=wrap;rounded=0;" parent="1" vertex="1">
          <mxGeometry x="400" y="150" width="60" height="20" as="geometry" />
        </mxCell>
        <mxCell id="Df5BAY0ZRy3SLglRoj6B-170" value="Partita 1" style="text;html=1;align=center;verticalAlign=middle;whiteSpace=wrap;rounded=0;" parent="1" vertex="1">
          <mxGeometry x="490" y="150" width="60" height="20" as="geometry" />
        </mxCell>
        <mxCell id="Df5BAY0ZRy3SLglRoj6B-171" value="Partita 2" style="text;html=1;align=center;verticalAlign=middle;whiteSpace=wrap;rounded=0;" parent="1" vertex="1">
          <mxGeometry x="560" y="150" width="60" height="20" as="geometry" />
        </mxCell>
        <mxCell id="Df5BAY0ZRy3SLglRoj6B-172" value="Partita 3" style="text;html=1;align=center;verticalAlign=middle;whiteSpace=wrap;rounded=0;" parent="1" vertex="1">
          <mxGeometry x="630" y="150" width="60" height="20" as="geometry" />
        </mxCell>
        <mxCell id="Df5BAY0ZRy3SLglRoj6B-173" value="&lt;font style=&quot;font-size: 10px;&quot;&gt;Cubadda G.&lt;br&gt;&lt;/font&gt;" style="rounded=1;whiteSpace=wrap;html=1;fillColor=none;" parent="1" vertex="1">
          <mxGeometry x="40" y="270" width="60" height="20" as="geometry" />
        </mxCell>
        <mxCell id="Df5BAY0ZRy3SLglRoj6B-174" value="&lt;font style=&quot;font-size: 10px;&quot;&gt;Gelsomino&lt;/font&gt;" style="rounded=1;whiteSpace=wrap;html=1;fillColor=none;" parent="1" vertex="1">
          <mxGeometry x="40" y="290" width="60" height="20" as="geometry" />
        </mxCell>
        <mxCell id="Df5BAY0ZRy3SLglRoj6B-175" value="&lt;font style=&quot;font-size: 10px;&quot;&gt;Pala Tonio&lt;br&gt;&lt;/font&gt;" style="rounded=1;whiteSpace=wrap;html=1;fillColor=none;" parent="1" vertex="1">
          <mxGeometry x="40" y="310" width="60" height="20" as="geometry" />
        </mxCell>
        <mxCell id="Df5BAY0ZRy3SLglRoj6B-182" value="&lt;b&gt;Girone I&lt;br&gt;&lt;/b&gt;" style="text;html=1;align=center;verticalAlign=middle;whiteSpace=wrap;rounded=0;" parent="1" vertex="1">
          <mxGeometry x="40" y="250" width="60" height="20" as="geometry" />
        </mxCell>
        <mxCell id="Df5BAY0ZRy3SLglRoj6B-183" value="Partita 1" style="text;html=1;align=center;verticalAlign=middle;whiteSpace=wrap;rounded=0;" parent="1" vertex="1">
          <mxGeometry x="130" y="250" width="60" height="20" as="geometry" />
        </mxCell>
        <mxCell id="Df5BAY0ZRy3SLglRoj6B-184" value="Partita 2" style="text;html=1;align=center;verticalAlign=middle;whiteSpace=wrap;rounded=0;" parent="1" vertex="1">
          <mxGeometry x="200" y="250" width="60" height="20" as="geometry" />
        </mxCell>
        <mxCell id="Df5BAY0ZRy3SLglRoj6B-185" value="Partita 3" style="text;html=1;align=center;verticalAlign=middle;whiteSpace=wrap;rounded=0;" parent="1" vertex="1">
          <mxGeometry x="270" y="250" width="60" height="20" as="geometry" />
        </mxCell>
        <mxCell id="Df5BAY0ZRy3SLglRoj6B-186" value="&lt;font style=&quot;font-size: 10px;&quot;&gt;Soro Franc.&lt;br&gt;&lt;/font&gt;" style="rounded=1;whiteSpace=wrap;html=1;fillColor=none;" parent="1" vertex="1">
          <mxGeometry x="1120" y="270" width="60" height="20" as="geometry" />
        </mxCell>
        <mxCell id="Df5BAY0ZRy3SLglRoj6B-187" value="&lt;font style=&quot;font-size: 10px;&quot;&gt;Mura Mario&lt;br&gt;&lt;/font&gt;" style="rounded=1;whiteSpace=wrap;html=1;fillColor=none;" parent="1" vertex="1">
          <mxGeometry x="1120" y="290" width="60" height="20" as="geometry" />
        </mxCell>
        <mxCell id="Df5BAY0ZRy3SLglRoj6B-188" value="&lt;font style=&quot;font-size: 10px;&quot;&gt;Muroni G.&lt;br&gt;&lt;/font&gt;" style="rounded=1;whiteSpace=wrap;html=1;fillColor=none;" parent="1" vertex="1">
          <mxGeometry x="1120" y="310" width="60" height="20" as="geometry" />
        </mxCell>
        <mxCell id="Df5BAY0ZRy3SLglRoj6B-195" value="&lt;b&gt;Girone L&lt;br&gt;&lt;/b&gt;" style="text;html=1;align=center;verticalAlign=middle;whiteSpace=wrap;rounded=0;" parent="1" vertex="1">
          <mxGeometry x="1120" y="250" width="60" height="20" as="geometry" />
        </mxCell>
        <mxCell id="Df5BAY0ZRy3SLglRoj6B-196" value="Partita 1" style="text;html=1;align=center;verticalAlign=middle;whiteSpace=wrap;rounded=0;" parent="1" vertex="1">
          <mxGeometry x="1210" y="250" width="60" height="20" as="geometry" />
        </mxCell>
        <mxCell id="Df5BAY0ZRy3SLglRoj6B-197" value="Partita 2" style="text;html=1;align=center;verticalAlign=middle;whiteSpace=wrap;rounded=0;" parent="1" vertex="1">
          <mxGeometry x="1280" y="250" width="60" height="20" as="geometry" />
        </mxCell>
        <mxCell id="Df5BAY0ZRy3SLglRoj6B-198" value="Partita 3" style="text;html=1;align=center;verticalAlign=middle;whiteSpace=wrap;rounded=0;" parent="1" vertex="1">
          <mxGeometry x="1350" y="250" width="60" height="20" as="geometry" />
        </mxCell>
        <mxCell id="Df5BAY0ZRy3SLglRoj6B-199" value="&lt;font style=&quot;font-size: 10px;&quot;&gt;Pala B.&lt;br&gt;&lt;/font&gt;" style="rounded=1;whiteSpace=wrap;html=1;fillColor=none;" parent="1" vertex="1">
          <mxGeometry x="760" y="380" width="60" height="20" as="geometry" />
        </mxCell>
        <mxCell id="Df5BAY0ZRy3SLglRoj6B-200" value="&lt;font style=&quot;font-size: 10px;&quot;&gt;Tilocca M.&lt;/font&gt;" style="rounded=1;whiteSpace=wrap;html=1;fillColor=none;" parent="1" vertex="1">
          <mxGeometry x="760" y="400" width="60" height="20" as="geometry" />
        </mxCell>
        <mxCell id="Df5BAY0ZRy3SLglRoj6B-201" value="&lt;font style=&quot;font-size: 10px;&quot;&gt;Pedoni C.&lt;br&gt;&lt;/font&gt;" style="rounded=1;whiteSpace=wrap;html=1;fillColor=none;" parent="1" vertex="1">
          <mxGeometry x="760" y="420" width="60" height="20" as="geometry" />
        </mxCell>
        <mxCell id="Df5BAY0ZRy3SLglRoj6B-208" value="&lt;b&gt;Girone O&lt;br&gt;&lt;/b&gt;" style="text;html=1;align=center;verticalAlign=middle;whiteSpace=wrap;rounded=0;" parent="1" vertex="1">
          <mxGeometry x="760" y="360" width="60" height="20" as="geometry" />
        </mxCell>
        <mxCell id="Df5BAY0ZRy3SLglRoj6B-209" value="Partita 1" style="text;html=1;align=center;verticalAlign=middle;whiteSpace=wrap;rounded=0;" parent="1" vertex="1">
          <mxGeometry x="850" y="360" width="60" height="20" as="geometry" />
        </mxCell>
        <mxCell id="Df5BAY0ZRy3SLglRoj6B-210" value="Partita 2" style="text;html=1;align=center;verticalAlign=middle;whiteSpace=wrap;rounded=0;" parent="1" vertex="1">
          <mxGeometry x="920" y="360" width="60" height="20" as="geometry" />
        </mxCell>
        <mxCell id="Df5BAY0ZRy3SLglRoj6B-211" value="Partita 3" style="text;html=1;align=center;verticalAlign=middle;whiteSpace=wrap;rounded=0;" parent="1" vertex="1">
          <mxGeometry x="990" y="360" width="60" height="20" as="geometry" />
        </mxCell>
        <mxCell id="Df5BAY0ZRy3SLglRoj6B-212" value="" style="rounded=1;whiteSpace=wrap;html=1;fillColor=#dae8fc;strokeColor=#6c8ebf;" parent="1" vertex="1">
          <mxGeometry x="1110" y="360" width="310" height="90" as="geometry" />
        </mxCell>
        <mxCell id="Df5BAY0ZRy3SLglRoj6B-213" value="&lt;font style=&quot;font-size: 10px;&quot;&gt;Cossu Mar.&lt;br&gt;&lt;/font&gt;" style="rounded=1;whiteSpace=wrap;html=1;fillColor=none;" parent="1" vertex="1">
          <mxGeometry x="1120" y="380" width="60" height="20" as="geometry" />
        </mxCell>
        <mxCell id="Df5BAY0ZRy3SLglRoj6B-214" value="&lt;font style=&quot;font-size: 10px;&quot;&gt;Castrechini&lt;br&gt;&lt;/font&gt;" style="rounded=1;whiteSpace=wrap;html=1;fillColor=none;" parent="1" vertex="1">
          <mxGeometry x="1120" y="400" width="60" height="20" as="geometry" />
        </mxCell>
        <mxCell id="Df5BAY0ZRy3SLglRoj6B-215" value="&lt;font style=&quot;font-size: 10px;&quot;&gt;De Santis A.&lt;br&gt;&lt;/font&gt;" style="rounded=1;whiteSpace=wrap;html=1;fillColor=none;" parent="1" vertex="1">
          <mxGeometry x="1120" y="420" width="60" height="20" as="geometry" />
        </mxCell>
        <mxCell id="Df5BAY0ZRy3SLglRoj6B-222" value="&lt;b&gt;Girone P&lt;br&gt;&lt;/b&gt;" style="text;html=1;align=center;verticalAlign=middle;whiteSpace=wrap;rounded=0;" parent="1" vertex="1">
          <mxGeometry x="1120" y="360" width="60" height="20" as="geometry" />
        </mxCell>
        <mxCell id="Df5BAY0ZRy3SLglRoj6B-223" value="Partita 1" style="text;html=1;align=center;verticalAlign=middle;whiteSpace=wrap;rounded=0;" parent="1" vertex="1">
          <mxGeometry x="1210" y="360" width="60" height="20" as="geometry" />
        </mxCell>
        <mxCell id="Df5BAY0ZRy3SLglRoj6B-224" value="Partita 2" style="text;html=1;align=center;verticalAlign=middle;whiteSpace=wrap;rounded=0;" parent="1" vertex="1">
          <mxGeometry x="1280" y="360" width="60" height="20" as="geometry" />
        </mxCell>
        <mxCell id="Df5BAY0ZRy3SLglRoj6B-225" value="Partita 3" style="text;html=1;align=center;verticalAlign=middle;whiteSpace=wrap;rounded=0;" parent="1" vertex="1">
          <mxGeometry x="1350" y="360" width="60" height="20" as="geometry" />
        </mxCell>
        <mxCell id="Df5BAY0ZRy3SLglRoj6B-234" value="&lt;font style=&quot;font-size: 20px;&quot;&gt;&lt;b&gt;TORNEO TENNIS USINI - GIUGNO 2024&lt;/b&gt;&lt;/font&gt;" style="text;html=1;align=center;verticalAlign=middle;whiteSpace=wrap;rounded=0;" parent="1" vertex="1">
          <mxGeometry x="30" y="10" width="1380" height="30" as="geometry" />
        </mxCell>
        <mxCell id="Df5BAY0ZRy3SLglRoj6B-522" value="&lt;font style=&quot;font-size: 10px;&quot;&gt;Temussi A.&lt;br&gt;&lt;/font&gt;" style="rounded=1;whiteSpace=wrap;html=1;fillColor=none;" parent="1" vertex="1">
          <mxGeometry x="130" y="70" width="60" height="20" as="geometry" />
        </mxCell>
        <mxCell id="Df5BAY0ZRy3SLglRoj6B-523" value="&lt;font style=&quot;font-size: 10px;&quot;&gt;Temussi A.&lt;br&gt;&lt;/font&gt;" style="rounded=1;whiteSpace=wrap;html=1;fillColor=none;fontStyle=1" parent="1" vertex="1">
          <mxGeometry x="200" y="70" width="60" height="20" as="geometry" />
        </mxCell>
        <mxCell id="Df5BAY0ZRy3SLglRoj6B-524" value="&lt;font style=&quot;font-size: 10px;&quot;&gt;Pirisi N.&lt;br&gt;&lt;/font&gt;" style="rounded=1;whiteSpace=wrap;html=1;fillColor=none;" parent="1" vertex="1">
          <mxGeometry x="130" y="90" width="60" height="20" as="geometry" />
        </mxCell>
        <mxCell id="Df5BAY0ZRy3SLglRoj6B-525" value="&lt;font style=&quot;font-size: 10px;&quot;&gt;Pirisi N.&lt;br&gt;&lt;/font&gt;" style="rounded=1;whiteSpace=wrap;html=1;fillColor=none;fontStyle=1" parent="1" vertex="1">
          <mxGeometry x="270" y="70" width="60" height="20" as="geometry" />
        </mxCell>
        <mxCell id="Df5BAY0ZRy3SLglRoj6B-526" value="&lt;font style=&quot;font-size: 10px;&quot;&gt;De Santis F.&lt;br&gt;&lt;/font&gt;" style="rounded=1;whiteSpace=wrap;html=1;fillColor=none;fontStyle=1" parent="1" vertex="1">
          <mxGeometry x="200" y="90" width="60" height="20" as="geometry" />
        </mxCell>
        <mxCell id="Df5BAY0ZRy3SLglRoj6B-527" value="&lt;font style=&quot;font-size: 10px;&quot;&gt;De Santis F.&lt;br&gt;&lt;/font&gt;" style="rounded=1;whiteSpace=wrap;html=1;fillColor=none;fontStyle=1" parent="1" vertex="1">
          <mxGeometry x="270" y="90" width="60" height="20" as="geometry" />
        </mxCell>
        <mxCell id="Df5BAY0ZRy3SLglRoj6B-528" value="&lt;font style=&quot;font-size: 10px;&quot;&gt;Carta Ales.&lt;br&gt;&lt;/font&gt;" style="rounded=1;whiteSpace=wrap;html=1;fillColor=none;fontStyle=1" parent="1" vertex="1">
          <mxGeometry x="130" y="170" width="60" height="20" as="geometry" />
        </mxCell>
        <mxCell id="Df5BAY0ZRy3SLglRoj6B-529" value="&lt;font style=&quot;font-size: 10px;&quot;&gt;Carta Ales.&lt;br&gt;&lt;/font&gt;" style="rounded=1;whiteSpace=wrap;html=1;fillColor=none;fontStyle=1" parent="1" vertex="1">
          <mxGeometry x="200" y="170" width="60" height="20" as="geometry" />
        </mxCell>
        <mxCell id="Df5BAY0ZRy3SLglRoj6B-530" value="&lt;font style=&quot;font-size: 10px;&quot;&gt;Cubadda G.&lt;br&gt;&lt;/font&gt;" style="rounded=1;whiteSpace=wrap;html=1;fillColor=none;fontStyle=1" parent="1" vertex="1">
          <mxGeometry x="130" y="270" width="60" height="20" as="geometry" />
        </mxCell>
        <mxCell id="Df5BAY0ZRy3SLglRoj6B-531" value="&lt;font style=&quot;font-size: 10px;&quot;&gt;Cubadda G.&lt;br&gt;&lt;/font&gt;" style="rounded=1;whiteSpace=wrap;html=1;fillColor=none;" parent="1" vertex="1">
          <mxGeometry x="200" y="270" width="60" height="20" as="geometry" />
        </mxCell>
        <mxCell id="Df5BAY0ZRy3SLglRoj6B-533" value="&lt;font style=&quot;font-size: 10px;&quot;&gt;Sotgiu Fabio&lt;br&gt;&lt;/font&gt;" style="rounded=1;whiteSpace=wrap;html=1;fillColor=none;" parent="1" vertex="1">
          <mxGeometry x="130" y="380" width="60" height="20" as="geometry" />
        </mxCell>
        <mxCell id="Df5BAY0ZRy3SLglRoj6B-534" value="&lt;font style=&quot;font-size: 10px;&quot;&gt;Sotgiu Fabio&lt;br&gt;&lt;/font&gt;" style="rounded=1;whiteSpace=wrap;html=1;fillColor=none;" parent="1" vertex="1">
          <mxGeometry x="200" y="380" width="60" height="20" as="geometry" />
        </mxCell>
        <mxCell id="Df5BAY0ZRy3SLglRoj6B-535" value="&lt;font style=&quot;font-size: 10px;&quot;&gt;Gaddia R.&lt;br&gt;&lt;/font&gt;" style="rounded=1;whiteSpace=wrap;html=1;fillColor=none;" parent="1" vertex="1">
          <mxGeometry x="130" y="400" width="60" height="20" as="geometry" />
        </mxCell>
        <mxCell id="Df5BAY0ZRy3SLglRoj6B-536" value="&lt;font style=&quot;font-size: 10px;&quot;&gt;Gaddia R.&lt;br&gt;&lt;/font&gt;" style="rounded=1;whiteSpace=wrap;html=1;fillColor=none;fontStyle=1" parent="1" vertex="1">
          <mxGeometry x="270" y="380" width="60" height="20" as="geometry" />
        </mxCell>
        <mxCell id="Df5BAY0ZRy3SLglRoj6B-537" value="&lt;font style=&quot;font-size: 10px;&quot;&gt;Gelsomino&lt;/font&gt;" style="rounded=1;whiteSpace=wrap;html=1;fillColor=none;fontStyle=1" parent="1" vertex="1">
          <mxGeometry x="130" y="290" width="60" height="20" as="geometry" />
        </mxCell>
        <mxCell id="Df5BAY0ZRy3SLglRoj6B-538" value="&lt;font style=&quot;font-size: 10px;&quot;&gt;Gelsomino&lt;/font&gt;" style="rounded=1;whiteSpace=wrap;html=1;fillColor=none;" parent="1" vertex="1">
          <mxGeometry x="270" y="270" width="60" height="20" as="geometry" />
        </mxCell>
        <mxCell id="Df5BAY0ZRy3SLglRoj6B-539" value="&lt;font style=&quot;font-size: 10px;&quot;&gt;Pala Tonio&lt;br&gt;&lt;/font&gt;" style="rounded=1;whiteSpace=wrap;html=1;fillColor=none;" parent="1" vertex="1">
          <mxGeometry x="200" y="290" width="60" height="20" as="geometry" />
        </mxCell>
        <mxCell id="Df5BAY0ZRy3SLglRoj6B-540" value="&lt;font style=&quot;font-size: 10px;&quot;&gt;Pala Tonio&lt;br&gt;&lt;/font&gt;" style="rounded=1;whiteSpace=wrap;html=1;fillColor=none;" parent="1" vertex="1">
          <mxGeometry x="270" y="290" width="60" height="20" as="geometry" />
        </mxCell>
        <mxCell id="Df5BAY0ZRy3SLglRoj6B-541" value="&lt;font style=&quot;font-size: 10px;&quot;&gt;Firinu David&lt;br&gt;&lt;/font&gt;" style="rounded=1;whiteSpace=wrap;html=1;fillColor=none;fontStyle=1" parent="1" vertex="1">
          <mxGeometry x="130" y="190" width="60" height="20" as="geometry" />
        </mxCell>
        <mxCell id="Df5BAY0ZRy3SLglRoj6B-542" value="&lt;font style=&quot;font-size: 10px;&quot;&gt;Firinu David&lt;br&gt;&lt;/font&gt;" style="rounded=1;whiteSpace=wrap;html=1;fillColor=none;fontStyle=1" parent="1" vertex="1">
          <mxGeometry x="270" y="170" width="60" height="20" as="geometry" />
        </mxCell>
        <mxCell id="Df5BAY0ZRy3SLglRoj6B-543" value="&lt;font style=&quot;font-size: 10px;&quot;&gt;Soro Pierp.&lt;br&gt;&lt;/font&gt;" style="rounded=1;whiteSpace=wrap;html=1;fillColor=none;fontStyle=1" parent="1" vertex="1">
          <mxGeometry x="200" y="190" width="60" height="20" as="geometry" />
        </mxCell>
        <mxCell id="Df5BAY0ZRy3SLglRoj6B-544" value="&lt;font style=&quot;font-size: 10px;&quot;&gt;Soro Pierp.&lt;br&gt;&lt;/font&gt;" style="rounded=1;whiteSpace=wrap;html=1;fillColor=none;fontStyle=1" parent="1" vertex="1">
          <mxGeometry x="270" y="190" width="60" height="20" as="geometry" />
        </mxCell>
        <mxCell id="Df5BAY0ZRy3SLglRoj6B-545" value="&lt;font style=&quot;font-size: 10px;&quot;&gt;Puggioni P.&lt;br&gt;&lt;/font&gt;" style="rounded=1;whiteSpace=wrap;html=1;fillColor=none;" parent="1" vertex="1">
          <mxGeometry x="200" y="400" width="60" height="20" as="geometry" />
        </mxCell>
        <mxCell id="Df5BAY0ZRy3SLglRoj6B-546" value="&lt;font style=&quot;font-size: 10px;&quot;&gt;Puggioni P.&lt;br&gt;&lt;/font&gt;" style="rounded=1;whiteSpace=wrap;html=1;fillColor=none;fontStyle=1" parent="1" vertex="1">
          <mxGeometry x="270" y="400" width="60" height="20" as="geometry" />
        </mxCell>
        <mxCell id="Df5BAY0ZRy3SLglRoj6B-547" value="&lt;font style=&quot;font-size: 10px;&quot;&gt;Coghene A.&lt;br&gt;&lt;/font&gt;" style="rounded=1;whiteSpace=wrap;html=1;fillColor=none;" parent="1" vertex="1">
          <mxGeometry x="490" y="70" width="60" height="20" as="geometry" />
        </mxCell>
        <mxCell id="Df5BAY0ZRy3SLglRoj6B-548" value="&lt;font style=&quot;font-size: 10px;&quot;&gt;Coghene A.&lt;br&gt;&lt;/font&gt;" style="rounded=1;whiteSpace=wrap;html=1;fillColor=none;" parent="1" vertex="1">
          <mxGeometry x="560" y="70" width="60" height="20" as="geometry" />
        </mxCell>
        <mxCell id="Df5BAY0ZRy3SLglRoj6B-549" value="&lt;font style=&quot;font-size: 10px;&quot;&gt;Corrias A.&lt;br&gt;&lt;/font&gt;" style="rounded=1;whiteSpace=wrap;html=1;fillColor=none;" parent="1" vertex="1">
          <mxGeometry x="490" y="90" width="60" height="20" as="geometry" />
        </mxCell>
        <mxCell id="Df5BAY0ZRy3SLglRoj6B-550" value="&lt;font style=&quot;font-size: 10px;&quot;&gt;Corrias A.&lt;br&gt;&lt;/font&gt;" style="rounded=1;whiteSpace=wrap;html=1;fillColor=none;" parent="1" vertex="1">
          <mxGeometry x="630" y="70" width="60" height="20" as="geometry" />
        </mxCell>
        <mxCell id="Df5BAY0ZRy3SLglRoj6B-551" value="&lt;font style=&quot;font-size: 10px;&quot;&gt;Accalai F.&lt;br&gt;&lt;/font&gt;" style="rounded=1;whiteSpace=wrap;html=1;fillColor=none;" parent="1" vertex="1">
          <mxGeometry x="560" y="90" width="60" height="20" as="geometry" />
        </mxCell>
        <mxCell id="Df5BAY0ZRy3SLglRoj6B-552" value="&lt;font style=&quot;font-size: 10px;&quot;&gt;Accalai F.&lt;br&gt;&lt;/font&gt;" style="rounded=1;whiteSpace=wrap;html=1;fillColor=none;" parent="1" vertex="1">
          <mxGeometry x="630" y="90" width="60" height="20" as="geometry" />
        </mxCell>
        <mxCell id="Df5BAY0ZRy3SLglRoj6B-553" value="&lt;font style=&quot;font-size: 10px;&quot;&gt;Cossu Giu.&lt;br&gt;&lt;/font&gt;" style="rounded=1;whiteSpace=wrap;html=1;fillColor=none;fontStyle=1" parent="1" vertex="1">
          <mxGeometry x="490" y="170" width="60" height="20" as="geometry" />
        </mxCell>
        <mxCell id="Df5BAY0ZRy3SLglRoj6B-554" value="&lt;font style=&quot;font-size: 10px;&quot;&gt;Cossu Giu.&lt;br&gt;&lt;/font&gt;" style="rounded=1;whiteSpace=wrap;html=1;fillColor=none;" parent="1" vertex="1">
          <mxGeometry x="560" y="170" width="60" height="20" as="geometry" />
        </mxCell>
        <mxCell id="Df5BAY0ZRy3SLglRoj6B-555" value="&lt;font style=&quot;font-size: 10px;&quot;&gt;Pintus Ang. &lt;br&gt;&lt;/font&gt;" style="rounded=1;whiteSpace=wrap;html=1;fillColor=none;fontStyle=1" parent="1" vertex="1">
          <mxGeometry x="490" y="190" width="60" height="20" as="geometry" />
        </mxCell>
        <mxCell id="Df5BAY0ZRy3SLglRoj6B-556" value="&lt;font style=&quot;font-size: 10px;&quot;&gt;Pintus Ang. &lt;br&gt;&lt;/font&gt;" style="rounded=1;whiteSpace=wrap;html=1;fillColor=none;fontStyle=1" parent="1" vertex="1">
          <mxGeometry x="630" y="170" width="60" height="20" as="geometry" />
        </mxCell>
        <mxCell id="Df5BAY0ZRy3SLglRoj6B-558" value="&lt;font style=&quot;font-size: 10px;&quot;&gt;Pani Rober.&lt;br&gt;&lt;/font&gt;" style="rounded=1;whiteSpace=wrap;html=1;fillColor=none;" parent="1" vertex="1">
          <mxGeometry x="560" y="190" width="60" height="20" as="geometry" />
        </mxCell>
        <mxCell id="Df5BAY0ZRy3SLglRoj6B-559" value="&lt;font style=&quot;font-size: 10px;&quot;&gt;Pani Rober.&lt;br&gt;&lt;/font&gt;" style="rounded=1;whiteSpace=wrap;html=1;fillColor=none;fontStyle=1" parent="1" vertex="1">
          <mxGeometry x="630" y="190" width="60" height="20" as="geometry" />
        </mxCell>
        <mxCell id="Df5BAY0ZRy3SLglRoj6B-560" value="&lt;font style=&quot;font-size: 10px;&quot;&gt;Giua Luc.&lt;br&gt;&lt;/font&gt;" style="rounded=1;whiteSpace=wrap;html=1;fillColor=none;fontStyle=1" parent="1" vertex="1">
          <mxGeometry x="490" y="270" width="60" height="20" as="geometry" />
        </mxCell>
        <mxCell id="Df5BAY0ZRy3SLglRoj6B-561" value="&lt;font style=&quot;font-size: 10px;&quot;&gt;Giua Luc.&lt;br&gt;&lt;/font&gt;" style="rounded=1;whiteSpace=wrap;html=1;fillColor=none;" parent="1" vertex="1">
          <mxGeometry x="560" y="270" width="60" height="20" as="geometry" />
        </mxCell>
        <mxCell id="Df5BAY0ZRy3SLglRoj6B-562" value="&lt;font style=&quot;font-size: 10px;&quot;&gt;Tanda Mar.&lt;br&gt;&lt;/font&gt;" style="rounded=1;whiteSpace=wrap;html=1;fillColor=none;fontStyle=1" parent="1" vertex="1">
          <mxGeometry x="490" y="290" width="60" height="20" as="geometry" />
        </mxCell>
        <mxCell id="Df5BAY0ZRy3SLglRoj6B-563" value="&lt;font style=&quot;font-size: 10px;&quot;&gt;Tanda Mar.&lt;br&gt;&lt;/font&gt;" style="rounded=1;whiteSpace=wrap;html=1;fillColor=none;" parent="1" vertex="1">
          <mxGeometry x="630" y="270" width="60" height="20" as="geometry" />
        </mxCell>
        <mxCell id="Df5BAY0ZRy3SLglRoj6B-564" value="&lt;font style=&quot;font-size: 10px;&quot;&gt;Cardin G.&lt;br&gt;&lt;/font&gt;" style="rounded=1;whiteSpace=wrap;html=1;fillColor=none;" parent="1" vertex="1">
          <mxGeometry x="560" y="290" width="60" height="20" as="geometry" />
        </mxCell>
        <mxCell id="Df5BAY0ZRy3SLglRoj6B-565" value="&lt;font style=&quot;font-size: 10px;&quot;&gt;Cardin G.&lt;br&gt;&lt;/font&gt;" style="rounded=1;whiteSpace=wrap;html=1;fillColor=none;" parent="1" vertex="1">
          <mxGeometry x="630" y="290" width="60" height="20" as="geometry" />
        </mxCell>
        <mxCell id="Df5BAY0ZRy3SLglRoj6B-567" value="&lt;font style=&quot;font-size: 10px;&quot;&gt;Dettori Pier.&lt;br&gt;&lt;/font&gt;" style="rounded=1;whiteSpace=wrap;html=1;fillColor=none;fontStyle=1" parent="1" vertex="1">
          <mxGeometry x="490" y="380" width="60" height="20" as="geometry" />
        </mxCell>
        <mxCell id="Df5BAY0ZRy3SLglRoj6B-568" value="&lt;font style=&quot;font-size: 10px;&quot;&gt;Dettori Pier.&lt;br&gt;&lt;/font&gt;" style="rounded=1;whiteSpace=wrap;html=1;fillColor=none;fontStyle=1" parent="1" vertex="1">
          <mxGeometry x="560" y="380" width="60" height="20" as="geometry" />
        </mxCell>
        <mxCell id="Df5BAY0ZRy3SLglRoj6B-569" value="&lt;font style=&quot;font-size: 10px;&quot;&gt;Di Pietro A.&lt;br&gt;&lt;/font&gt;" style="rounded=1;whiteSpace=wrap;html=1;fillColor=none;fontStyle=1" parent="1" vertex="1">
          <mxGeometry x="490" y="400" width="60" height="20" as="geometry" />
        </mxCell>
        <mxCell id="Df5BAY0ZRy3SLglRoj6B-570" value="&lt;font style=&quot;font-size: 10px;&quot;&gt;Di Pietro A.&lt;br&gt;&lt;/font&gt;" style="rounded=1;whiteSpace=wrap;html=1;fillColor=none;fontStyle=1" parent="1" vertex="1">
          <mxGeometry x="630" y="380" width="60" height="20" as="geometry" />
        </mxCell>
        <mxCell id="Df5BAY0ZRy3SLglRoj6B-572" value="&lt;font style=&quot;font-size: 10px;&quot;&gt;Pietri Giaim&lt;br&gt;&lt;/font&gt;" style="rounded=1;whiteSpace=wrap;html=1;fillColor=none;fontStyle=1" parent="1" vertex="1">
          <mxGeometry x="560" y="400" width="60" height="20" as="geometry" />
        </mxCell>
        <mxCell id="Df5BAY0ZRy3SLglRoj6B-573" value="&lt;font style=&quot;font-size: 10px;&quot;&gt;Pietri Giaim&lt;br&gt;&lt;/font&gt;" style="rounded=1;whiteSpace=wrap;html=1;fillColor=none;fontStyle=1" parent="1" vertex="1">
          <mxGeometry x="630" y="400" width="60" height="20" as="geometry" />
        </mxCell>
        <mxCell id="Df5BAY0ZRy3SLglRoj6B-575" value="&lt;font style=&quot;font-size: 10px;&quot;&gt;Cossu Gab.&lt;br&gt;&lt;/font&gt;" style="rounded=1;whiteSpace=wrap;html=1;fillColor=none;" parent="1" vertex="1">
          <mxGeometry x="850" y="70" width="60" height="20" as="geometry" />
        </mxCell>
        <mxCell id="Df5BAY0ZRy3SLglRoj6B-576" value="&lt;font style=&quot;font-size: 10px;&quot;&gt;Cossu Gab.&lt;br&gt;&lt;/font&gt;" style="rounded=1;whiteSpace=wrap;html=1;fillColor=none;fontStyle=1" parent="1" vertex="1">
          <mxGeometry x="920" y="70" width="60" height="20" as="geometry" />
        </mxCell>
        <mxCell id="Df5BAY0ZRy3SLglRoj6B-577" value="&lt;font style=&quot;font-size: 10px;&quot;&gt;Rotelli A.&lt;br&gt;&lt;/font&gt;" style="rounded=1;whiteSpace=wrap;html=1;fillColor=none;" parent="1" vertex="1">
          <mxGeometry x="850" y="90" width="60" height="20" as="geometry" />
        </mxCell>
        <mxCell id="Df5BAY0ZRy3SLglRoj6B-578" value="&lt;font style=&quot;font-size: 10px;&quot;&gt;Rotelli A.&lt;br&gt;&lt;/font&gt;" style="rounded=1;whiteSpace=wrap;html=1;fillColor=none;" parent="1" vertex="1">
          <mxGeometry x="990" y="70" width="60" height="20" as="geometry" />
        </mxCell>
        <mxCell id="Df5BAY0ZRy3SLglRoj6B-579" value="&lt;font style=&quot;font-size: 10px;&quot;&gt;Masia F.&lt;br&gt;&lt;/font&gt;" style="rounded=1;whiteSpace=wrap;html=1;fillColor=none;fontStyle=1" parent="1" vertex="1">
          <mxGeometry x="920" y="90" width="60" height="20" as="geometry" />
        </mxCell>
        <mxCell id="Df5BAY0ZRy3SLglRoj6B-580" value="&lt;font style=&quot;font-size: 10px;&quot;&gt;Masia F.&lt;br&gt;&lt;/font&gt;" style="rounded=1;whiteSpace=wrap;html=1;fillColor=none;" parent="1" vertex="1">
          <mxGeometry x="990" y="90" width="60" height="20" as="geometry" />
        </mxCell>
        <mxCell id="Df5BAY0ZRy3SLglRoj6B-582" value="&lt;font style=&quot;font-size: 10px;&quot;&gt;Sollai Fulv.&lt;br&gt;&lt;/font&gt;" style="rounded=1;whiteSpace=wrap;html=1;fillColor=none;fontStyle=1" parent="1" vertex="1">
          <mxGeometry x="850" y="170" width="60" height="20" as="geometry" />
        </mxCell>
        <mxCell id="Df5BAY0ZRy3SLglRoj6B-583" value="&lt;font style=&quot;font-size: 10px;&quot;&gt;Sollai Fulv.&lt;br&gt;&lt;/font&gt;" style="rounded=1;whiteSpace=wrap;html=1;fillColor=none;fontStyle=1" parent="1" vertex="1">
          <mxGeometry x="920" y="170" width="60" height="20" as="geometry" />
        </mxCell>
        <mxCell id="Df5BAY0ZRy3SLglRoj6B-584" value="&lt;font style=&quot;font-size: 10px;&quot;&gt;Pala Matteo&lt;br&gt;&lt;/font&gt;" style="rounded=1;whiteSpace=wrap;html=1;fillColor=none;fontStyle=1" parent="1" vertex="1">
          <mxGeometry x="850" y="190" width="60" height="20" as="geometry" />
        </mxCell>
        <mxCell id="Df5BAY0ZRy3SLglRoj6B-585" value="&lt;font style=&quot;font-size: 10px;&quot;&gt;Pala Matteo&lt;br&gt;&lt;/font&gt;" style="rounded=1;whiteSpace=wrap;html=1;fillColor=none;fontStyle=1" parent="1" vertex="1">
          <mxGeometry x="990" y="170" width="60" height="20" as="geometry" />
        </mxCell>
        <mxCell id="Df5BAY0ZRy3SLglRoj6B-586" value="&lt;font style=&quot;font-size: 10px;&quot;&gt;Sechi Gigi&lt;br&gt;&lt;/font&gt;" style="rounded=1;whiteSpace=wrap;html=1;fillColor=none;fontStyle=1" parent="1" vertex="1">
          <mxGeometry x="920" y="190" width="60" height="20" as="geometry" />
        </mxCell>
        <mxCell id="Df5BAY0ZRy3SLglRoj6B-587" value="&lt;font style=&quot;font-size: 10px;&quot;&gt;Sechi Gigi&lt;br&gt;&lt;/font&gt;" style="rounded=1;whiteSpace=wrap;html=1;fillColor=none;fontStyle=1" parent="1" vertex="1">
          <mxGeometry x="990" y="190" width="60" height="20" as="geometry" />
        </mxCell>
        <mxCell id="Df5BAY0ZRy3SLglRoj6B-588" value="&lt;font style=&quot;font-size: 10px;&quot;&gt;Delogu Mar.&lt;br&gt;&lt;/font&gt;" style="rounded=1;whiteSpace=wrap;html=1;fillColor=none;fontStyle=1" parent="1" vertex="1">
          <mxGeometry x="850" y="270" width="60" height="20" as="geometry" />
        </mxCell>
        <mxCell id="Df5BAY0ZRy3SLglRoj6B-589" value="&lt;font style=&quot;font-size: 10px;&quot;&gt;Delogu Mar.&lt;br&gt;&lt;/font&gt;" style="rounded=1;whiteSpace=wrap;html=1;fillColor=none;fontStyle=1" parent="1" vertex="1">
          <mxGeometry x="920" y="270" width="60" height="20" as="geometry" />
        </mxCell>
        <mxCell id="Df5BAY0ZRy3SLglRoj6B-590" value="&lt;font style=&quot;font-size: 10px;&quot;&gt;Manca Ant.&lt;br&gt;&lt;/font&gt;" style="rounded=1;whiteSpace=wrap;html=1;fillColor=none;fontStyle=1" parent="1" vertex="1">
          <mxGeometry x="850" y="290" width="60" height="20" as="geometry" />
        </mxCell>
        <mxCell id="Df5BAY0ZRy3SLglRoj6B-591" value="&lt;font style=&quot;font-size: 10px;&quot;&gt;Manca Ant.&lt;br&gt;&lt;/font&gt;" style="rounded=1;whiteSpace=wrap;html=1;fillColor=none;" parent="1" vertex="1">
          <mxGeometry x="990" y="270" width="60" height="20" as="geometry" />
        </mxCell>
        <mxCell id="Df5BAY0ZRy3SLglRoj6B-592" value="&lt;font style=&quot;font-size: 10px;&quot;&gt;Angius Ef.&lt;br&gt;&lt;/font&gt;" style="rounded=1;whiteSpace=wrap;html=1;fillColor=none;fontStyle=1" parent="1" vertex="1">
          <mxGeometry x="920" y="290" width="60" height="20" as="geometry" />
        </mxCell>
        <mxCell id="Df5BAY0ZRy3SLglRoj6B-593" value="&lt;font style=&quot;font-size: 10px;&quot;&gt;Angius Ef.&lt;br&gt;&lt;/font&gt;" style="rounded=1;whiteSpace=wrap;html=1;fillColor=none;" parent="1" vertex="1">
          <mxGeometry x="990" y="290" width="60" height="20" as="geometry" />
        </mxCell>
        <mxCell id="Df5BAY0ZRy3SLglRoj6B-594" value="&lt;font style=&quot;font-size: 10px;&quot;&gt;Pala B.&lt;/font&gt;" style="rounded=1;whiteSpace=wrap;html=1;fillColor=none;fontStyle=1" parent="1" vertex="1">
          <mxGeometry x="850" y="380" width="60" height="20" as="geometry" />
        </mxCell>
        <mxCell id="Df5BAY0ZRy3SLglRoj6B-595" value="&lt;font style=&quot;font-size: 10px;&quot;&gt;Pala B.&lt;/font&gt;" style="rounded=1;whiteSpace=wrap;html=1;fillColor=none;fontStyle=1" parent="1" vertex="1">
          <mxGeometry x="920" y="380" width="60" height="20" as="geometry" />
        </mxCell>
        <mxCell id="Df5BAY0ZRy3SLglRoj6B-596" value="&lt;font style=&quot;font-size: 10px;&quot;&gt;Tilocca M.&lt;/font&gt;" style="rounded=1;whiteSpace=wrap;html=1;fillColor=none;fontStyle=1" parent="1" vertex="1">
          <mxGeometry x="850" y="400" width="60" height="20" as="geometry" />
        </mxCell>
        <mxCell id="Df5BAY0ZRy3SLglRoj6B-597" value="&lt;font style=&quot;font-size: 10px;&quot;&gt;Tilocca M.&lt;/font&gt;" style="rounded=1;whiteSpace=wrap;html=1;fillColor=none;" parent="1" vertex="1">
          <mxGeometry x="990" y="380" width="60" height="20" as="geometry" />
        </mxCell>
        <mxCell id="Df5BAY0ZRy3SLglRoj6B-598" value="&lt;font style=&quot;font-size: 10px;&quot;&gt;Pedoni C.&lt;br&gt;&lt;/font&gt;" style="rounded=1;whiteSpace=wrap;html=1;fillColor=none;fontStyle=1" parent="1" vertex="1">
          <mxGeometry x="920" y="400" width="60" height="20" as="geometry" />
        </mxCell>
        <mxCell id="Df5BAY0ZRy3SLglRoj6B-599" value="&lt;font style=&quot;font-size: 10px;&quot;&gt;Pedoni C.&lt;br&gt;&lt;/font&gt;" style="rounded=1;whiteSpace=wrap;html=1;fillColor=none;" parent="1" vertex="1">
          <mxGeometry x="990" y="400" width="60" height="20" as="geometry" />
        </mxCell>
        <mxCell id="Df5BAY0ZRy3SLglRoj6B-600" value="&lt;font style=&quot;font-size: 10px;&quot;&gt;Cabras A.&lt;/font&gt;" style="rounded=1;whiteSpace=wrap;html=1;fillColor=none;fontStyle=1" parent="1" vertex="1">
          <mxGeometry x="1210" y="70" width="60" height="20" as="geometry" />
        </mxCell>
        <mxCell id="Df5BAY0ZRy3SLglRoj6B-601" value="&lt;font style=&quot;font-size: 10px;&quot;&gt;Cabras A.&lt;/font&gt;" style="rounded=1;whiteSpace=wrap;html=1;fillColor=none;fontStyle=1" parent="1" vertex="1">
          <mxGeometry x="1280" y="70" width="60" height="20" as="geometry" />
        </mxCell>
        <mxCell id="Df5BAY0ZRy3SLglRoj6B-602" value="&lt;font style=&quot;font-size: 10px;&quot;&gt;Pilo F.&lt;br&gt;&lt;/font&gt;" style="rounded=1;whiteSpace=wrap;html=1;fillColor=none;fontStyle=1" parent="1" vertex="1">
          <mxGeometry x="1210" y="90" width="60" height="20" as="geometry" />
        </mxCell>
        <mxCell id="Df5BAY0ZRy3SLglRoj6B-603" value="&lt;font style=&quot;font-size: 10px;&quot;&gt;Pilo F.&lt;br&gt;&lt;/font&gt;" style="rounded=1;whiteSpace=wrap;html=1;fillColor=none;fontStyle=1" parent="1" vertex="1">
          <mxGeometry x="1350" y="70" width="60" height="20" as="geometry" />
        </mxCell>
        <mxCell id="Df5BAY0ZRy3SLglRoj6B-604" value="&lt;font style=&quot;font-size: 10px;&quot;&gt;Pedoni A.&lt;br&gt;&lt;/font&gt;" style="rounded=1;whiteSpace=wrap;html=1;fillColor=none;fontStyle=1" parent="1" vertex="1">
          <mxGeometry x="1280" y="90" width="60" height="20" as="geometry" />
        </mxCell>
        <mxCell id="Df5BAY0ZRy3SLglRoj6B-605" value="&lt;font style=&quot;font-size: 10px;&quot;&gt;Pedoni A.&lt;br&gt;&lt;/font&gt;" style="rounded=1;whiteSpace=wrap;html=1;fillColor=none;fontStyle=1" parent="1" vertex="1">
          <mxGeometry x="1350" y="90" width="60" height="20" as="geometry" />
        </mxCell>
        <mxCell id="Df5BAY0ZRy3SLglRoj6B-606" value="&lt;font style=&quot;font-size: 10px;&quot;&gt;Cossu Salv.&lt;br&gt;&lt;/font&gt;" style="rounded=1;whiteSpace=wrap;html=1;fillColor=none;" parent="1" vertex="1">
          <mxGeometry x="1210" y="170" width="60" height="20" as="geometry" />
        </mxCell>
        <mxCell id="Df5BAY0ZRy3SLglRoj6B-607" value="&lt;font style=&quot;font-size: 10px;&quot;&gt;Cossu Salv.&lt;br&gt;&lt;/font&gt;" style="rounded=1;whiteSpace=wrap;html=1;fillColor=none;fontStyle=1" parent="1" vertex="1">
          <mxGeometry x="1280" y="170" width="60" height="20" as="geometry" />
        </mxCell>
        <mxCell id="Df5BAY0ZRy3SLglRoj6B-608" value="&lt;font style=&quot;font-size: 10px;&quot;&gt;Muroni Bru.&lt;br&gt;&lt;/font&gt;" style="rounded=1;whiteSpace=wrap;html=1;fillColor=none;" parent="1" vertex="1">
          <mxGeometry x="1210" y="190" width="60" height="20" as="geometry" />
        </mxCell>
        <mxCell id="Df5BAY0ZRy3SLglRoj6B-609" value="&lt;font style=&quot;font-size: 10px;&quot;&gt;Muroni Bru.&lt;br&gt;&lt;/font&gt;" style="rounded=1;whiteSpace=wrap;html=1;fillColor=none;" parent="1" vertex="1">
          <mxGeometry x="1350" y="170" width="60" height="20" as="geometry" />
        </mxCell>
        <mxCell id="Df5BAY0ZRy3SLglRoj6B-610" value="&lt;font style=&quot;font-size: 10px;&quot;&gt;Chighine S.&lt;br&gt;&lt;/font&gt;" style="rounded=1;whiteSpace=wrap;html=1;fillColor=none;fontStyle=1" parent="1" vertex="1">
          <mxGeometry x="1280" y="190" width="60" height="20" as="geometry" />
        </mxCell>
        <mxCell id="Df5BAY0ZRy3SLglRoj6B-611" value="&lt;font style=&quot;font-size: 10px;&quot;&gt;Chighine S.&lt;br&gt;&lt;/font&gt;" style="rounded=1;whiteSpace=wrap;html=1;fillColor=none;" parent="1" vertex="1">
          <mxGeometry x="1350" y="190" width="60" height="20" as="geometry" />
        </mxCell>
        <mxCell id="Df5BAY0ZRy3SLglRoj6B-612" value="&lt;font style=&quot;font-size: 10px;&quot;&gt;Soro Franc.&lt;br&gt;&lt;/font&gt;" style="rounded=1;whiteSpace=wrap;html=1;fillColor=none;fontStyle=1" parent="1" vertex="1">
          <mxGeometry x="1210" y="270" width="60" height="20" as="geometry" />
        </mxCell>
        <mxCell id="Df5BAY0ZRy3SLglRoj6B-613" value="&lt;font style=&quot;font-size: 10px;&quot;&gt;Soro Franc.&lt;br&gt;&lt;/font&gt;" style="rounded=1;whiteSpace=wrap;html=1;fillColor=none;" parent="1" vertex="1">
          <mxGeometry x="1280" y="270" width="60" height="20" as="geometry" />
        </mxCell>
        <mxCell id="Df5BAY0ZRy3SLglRoj6B-614" value="&lt;font style=&quot;font-size: 10px;&quot;&gt;Mura Mario&lt;br&gt;&lt;/font&gt;" style="rounded=1;whiteSpace=wrap;html=1;fillColor=none;fontStyle=1" parent="1" vertex="1">
          <mxGeometry x="1210" y="290" width="60" height="20" as="geometry" />
        </mxCell>
        <mxCell id="Df5BAY0ZRy3SLglRoj6B-615" value="&lt;font style=&quot;font-size: 10px;&quot;&gt;Mura Mario&lt;br&gt;&lt;/font&gt;" style="rounded=1;whiteSpace=wrap;html=1;fillColor=none;fontStyle=1" parent="1" vertex="1">
          <mxGeometry x="1350" y="270" width="60" height="20" as="geometry" />
        </mxCell>
        <mxCell id="Df5BAY0ZRy3SLglRoj6B-618" value="&lt;font style=&quot;font-size: 10px;&quot;&gt;Cossu Mar.&lt;br&gt;&lt;/font&gt;" style="rounded=1;whiteSpace=wrap;html=1;fillColor=none;fontStyle=1" parent="1" vertex="1">
          <mxGeometry x="1210" y="380" width="60" height="20" as="geometry" />
        </mxCell>
        <mxCell id="Df5BAY0ZRy3SLglRoj6B-619" value="&lt;font style=&quot;font-size: 10px;&quot;&gt;Cossu Mar.&lt;br&gt;&lt;/font&gt;" style="rounded=1;whiteSpace=wrap;html=1;fillColor=none;" parent="1" vertex="1">
          <mxGeometry x="1280" y="380" width="60" height="20" as="geometry" />
        </mxCell>
        <mxCell id="Df5BAY0ZRy3SLglRoj6B-620" value="&lt;font style=&quot;font-size: 10px;&quot;&gt;Castrechini&lt;br&gt;&lt;/font&gt;" style="rounded=1;whiteSpace=wrap;html=1;fillColor=none;fontStyle=1" parent="1" vertex="1">
          <mxGeometry x="1210" y="400" width="60" height="20" as="geometry" />
        </mxCell>
        <mxCell id="Df5BAY0ZRy3SLglRoj6B-621" value="&lt;font style=&quot;font-size: 10px;&quot;&gt;Castrechini&lt;br&gt;&lt;/font&gt;" style="rounded=1;whiteSpace=wrap;html=1;fillColor=none;" parent="1" vertex="1">
          <mxGeometry x="1350" y="380" width="60" height="20" as="geometry" />
        </mxCell>
        <mxCell id="Df5BAY0ZRy3SLglRoj6B-623" value="&lt;font style=&quot;font-size: 10px;&quot;&gt;De Santis A.&lt;br&gt;&lt;/font&gt;" style="rounded=1;whiteSpace=wrap;html=1;fillColor=none;" parent="1" vertex="1">
          <mxGeometry x="1280" y="400" width="60" height="20" as="geometry" />
        </mxCell>
        <mxCell id="Df5BAY0ZRy3SLglRoj6B-624" value="&lt;font style=&quot;font-size: 10px;&quot;&gt;De Santis A.&lt;br&gt;&lt;/font&gt;" style="rounded=1;whiteSpace=wrap;html=1;fillColor=none;" parent="1" vertex="1">
          <mxGeometry x="1350" y="400" width="60" height="20" as="geometry" />
        </mxCell>
        <mxCell id="Df5BAY0ZRy3SLglRoj6B-625" value="&lt;font style=&quot;font-size: 10px;&quot;&gt;Muroni G.&lt;br&gt;&lt;/font&gt;" style="rounded=1;whiteSpace=wrap;html=1;fillColor=none;" parent="1" vertex="1">
          <mxGeometry x="1280" y="290" width="60" height="20" as="geometry" />
        </mxCell>
        <mxCell id="Df5BAY0ZRy3SLglRoj6B-626" value="&lt;font style=&quot;font-size: 10px;&quot;&gt;Muroni G.&lt;br&gt;&lt;/font&gt;" style="rounded=1;whiteSpace=wrap;html=1;fillColor=none;fontStyle=1" parent="1" vertex="1">
          <mxGeometry x="1350" y="290" width="60" height="20" as="geometry" />
        </mxCell>
        <mxCell id="Df5BAY0ZRy3SLglRoj6B-627" value="&lt;font style=&quot;font-size: 10px;&quot;&gt;3/6 18:00-19:30&lt;br&gt;&lt;/font&gt;" style="text;html=1;align=center;verticalAlign=middle;whiteSpace=wrap;rounded=0;" parent="1" vertex="1">
          <mxGeometry x="630" y="420" width="60" height="30" as="geometry" />
        </mxCell>
        <mxCell id="Df5BAY0ZRy3SLglRoj6B-628" value="&lt;font style=&quot;font-size: 10px;&quot;&gt;4/6 16:30-18:00&lt;br&gt;&lt;/font&gt;" style="text;html=1;align=center;verticalAlign=middle;whiteSpace=wrap;rounded=0;" parent="1" vertex="1">
          <mxGeometry x="130" y="210" width="60" height="30" as="geometry" />
        </mxCell>
        <mxCell id="Df5BAY0ZRy3SLglRoj6B-629" value="&lt;font style=&quot;font-size: 10px;&quot;&gt;4/6 18:00-19:30&lt;br&gt;&lt;/font&gt;" style="text;html=1;align=center;verticalAlign=middle;whiteSpace=wrap;rounded=0;" parent="1" vertex="1">
          <mxGeometry x="1280" y="110" width="60" height="30" as="geometry" />
        </mxCell>
        <mxCell id="Df5BAY0ZRy3SLglRoj6B-630" value="&lt;font style=&quot;font-size: 10px;&quot;&gt;4/6 19:30-21:00&lt;br&gt;&lt;/font&gt;" style="text;html=1;align=center;verticalAlign=middle;whiteSpace=wrap;rounded=0;" parent="1" vertex="1">
          <mxGeometry x="990" y="210" width="60" height="30" as="geometry" />
        </mxCell>
        <mxCell id="Df5BAY0ZRy3SLglRoj6B-631" value="&lt;font style=&quot;font-size: 10px;&quot;&gt;5/6 17:30-19:00&lt;br&gt;&lt;/font&gt;" style="text;html=1;align=center;verticalAlign=middle;whiteSpace=wrap;rounded=0;" parent="1" vertex="1">
          <mxGeometry x="1210" y="110" width="60" height="30" as="geometry" />
        </mxCell>
        <mxCell id="Df5BAY0ZRy3SLglRoj6B-632" value="&lt;font style=&quot;font-size: 10px;&quot;&gt;5/6 19:00-20:30&lt;br&gt;&lt;/font&gt;" style="text;html=1;align=center;verticalAlign=middle;whiteSpace=wrap;rounded=0;" parent="1" vertex="1">
          <mxGeometry x="850" y="420" width="60" height="30" as="geometry" />
        </mxCell>
        <mxCell id="Df5BAY0ZRy3SLglRoj6B-633" value="&lt;font style=&quot;font-size: 10px;&quot;&gt;7/6 19:00-20:30&lt;br&gt;&lt;/font&gt;" style="text;html=1;align=center;verticalAlign=middle;whiteSpace=wrap;rounded=0;" parent="1" vertex="1">
          <mxGeometry x="560" y="420" width="60" height="30" as="geometry" />
        </mxCell>
        <mxCell id="Df5BAY0ZRy3SLglRoj6B-634" value="&lt;font style=&quot;font-size: 10px;&quot;&gt;11/6 18:30-20:00&lt;br&gt;&lt;/font&gt;" style="text;html=1;align=center;verticalAlign=middle;whiteSpace=wrap;rounded=0;" parent="1" vertex="1">
          <mxGeometry x="200" y="210" width="60" height="30" as="geometry" />
        </mxCell>
        <mxCell id="Df5BAY0ZRy3SLglRoj6B-635" value="&lt;font style=&quot;font-size: 10px;&quot;&gt;12/6 18:00-19:30&lt;br&gt;&lt;/font&gt;" style="text;html=1;align=center;verticalAlign=middle;whiteSpace=wrap;rounded=0;" parent="1" vertex="1">
          <mxGeometry x="1350" y="110" width="60" height="30" as="geometry" />
        </mxCell>
        <mxCell id="Df5BAY0ZRy3SLglRoj6B-636" value="&lt;font style=&quot;font-size: 10px;&quot;&gt;3/6 15:00-16:30&lt;br&gt;&lt;/font&gt;" style="text;html=1;align=center;verticalAlign=middle;whiteSpace=wrap;rounded=0;" parent="1" vertex="1">
          <mxGeometry x="270" y="110" width="60" height="30" as="geometry" />
        </mxCell>
        <mxCell id="5XahTFnQY6GTzP8rRUWg-1" value="&lt;font style=&quot;font-size: 10px;&quot;&gt;5/6 16:00-17:30&lt;br&gt;&lt;/font&gt;" style="text;html=1;align=center;verticalAlign=middle;whiteSpace=wrap;rounded=0;" vertex="1" parent="1">
          <mxGeometry x="200" y="110" width="60" height="30" as="geometry" />
        </mxCell>
        <mxCell id="5XahTFnQY6GTzP8rRUWg-2" value="&lt;font style=&quot;font-size: 10px;&quot;&gt;14/6 19:00-20:30&lt;br&gt;&lt;/font&gt;" style="text;html=1;align=center;verticalAlign=middle;whiteSpace=wrap;rounded=0;" vertex="1" parent="1">
          <mxGeometry x="270" y="210" width="60" height="30" as="geometry" />
        </mxCell>
        <mxCell id="5XahTFnQY6GTzP8rRUWg-3" value="&lt;font style=&quot;font-size: 10px;&quot;&gt;3/6 09:00-10:30&lt;br&gt;&lt;/font&gt;" style="text;html=1;align=center;verticalAlign=middle;whiteSpace=wrap;rounded=0;" vertex="1" parent="1">
          <mxGeometry x="130" y="310" width="60" height="30" as="geometry" />
        </mxCell>
        <mxCell id="5XahTFnQY6GTzP8rRUWg-4" value="&lt;font style=&quot;font-size: 10px;&quot;&gt;6/6 18:00 - 19:30&lt;br&gt;&lt;/font&gt;" style="text;html=1;align=center;verticalAlign=middle;whiteSpace=wrap;rounded=0;" vertex="1" parent="1">
          <mxGeometry x="270" y="420" width="60" height="30" as="geometry" />
        </mxCell>
        <mxCell id="5XahTFnQY6GTzP8rRUWg-5" value="&lt;font style=&quot;font-size: 10px;&quot;&gt;7/6 17:30-19:00&lt;br&gt;&lt;/font&gt;" style="text;html=1;align=center;verticalAlign=middle;whiteSpace=wrap;rounded=0;" vertex="1" parent="1">
          <mxGeometry x="630" y="210" width="60" height="30" as="geometry" />
        </mxCell>
        <mxCell id="5XahTFnQY6GTzP8rRUWg-6" value="&lt;font style=&quot;font-size: 10px;&quot;&gt;3/6 19:30-21:00&lt;br&gt;&lt;/font&gt;" style="text;html=1;align=center;verticalAlign=middle;whiteSpace=wrap;rounded=0;fontStyle=0" vertex="1" parent="1">
          <mxGeometry x="490" y="210" width="60" height="30" as="geometry" />
        </mxCell>
        <mxCell id="5XahTFnQY6GTzP8rRUWg-7" value="&lt;font style=&quot;font-size: 10px;&quot;&gt;10/6 17:00-18:30&lt;br&gt;&lt;/font&gt;" style="text;html=1;align=center;verticalAlign=middle;whiteSpace=wrap;rounded=0;fontStyle=0" vertex="1" parent="1">
          <mxGeometry x="490" y="310" width="60" height="30" as="geometry" />
        </mxCell>
        <mxCell id="5XahTFnQY6GTzP8rRUWg-8" value="&lt;font style=&quot;font-size: 10px;&quot;&gt;13/6 19:30-21:00&lt;br&gt;&lt;/font&gt;" style="text;html=1;align=center;verticalAlign=middle;whiteSpace=wrap;rounded=0;" vertex="1" parent="1">
          <mxGeometry x="490" y="420" width="60" height="30" as="geometry" />
        </mxCell>
        <mxCell id="5XahTFnQY6GTzP8rRUWg-9" value="&lt;font style=&quot;font-size: 10px;&quot;&gt;6/6 16:30-18:00&lt;br&gt;&lt;/font&gt;" style="text;html=1;align=center;verticalAlign=middle;whiteSpace=wrap;rounded=0;" vertex="1" parent="1">
          <mxGeometry x="920" y="110" width="60" height="30" as="geometry" />
        </mxCell>
        <mxCell id="5XahTFnQY6GTzP8rRUWg-10" value="&lt;font style=&quot;font-size: 10px;&quot;&gt;12/6 19:30-21:00&lt;br&gt;&lt;/font&gt;" style="text;html=1;align=center;verticalAlign=middle;whiteSpace=wrap;rounded=0;" vertex="1" parent="1">
          <mxGeometry x="920" y="210" width="60" height="30" as="geometry" />
        </mxCell>
        <mxCell id="5XahTFnQY6GTzP8rRUWg-11" value="&lt;font style=&quot;font-size: 10px;&quot;&gt;7/6 20:30-22:00&lt;br&gt;&lt;/font&gt;" style="text;html=1;align=center;verticalAlign=middle;whiteSpace=wrap;rounded=0;" vertex="1" parent="1">
          <mxGeometry x="850" y="210" width="60" height="30" as="geometry" />
        </mxCell>
        <mxCell id="5XahTFnQY6GTzP8rRUWg-12" value="&lt;font style=&quot;font-size: 10px;&quot;&gt;6/6 10:00-11:30&lt;br&gt;&lt;/font&gt;" style="text;html=1;align=center;verticalAlign=middle;whiteSpace=wrap;rounded=0;" vertex="1" parent="1">
          <mxGeometry x="850" y="310" width="60" height="30" as="geometry" />
        </mxCell>
        <mxCell id="5XahTFnQY6GTzP8rRUWg-13" value="&lt;font style=&quot;font-size: 10px;&quot;&gt;3/6 16:30-18:00&lt;br&gt;&lt;/font&gt;" style="text;html=1;align=center;verticalAlign=middle;whiteSpace=wrap;rounded=0;" vertex="1" parent="1">
          <mxGeometry x="920" y="310" width="60" height="30" as="geometry" />
        </mxCell>
        <mxCell id="5XahTFnQY6GTzP8rRUWg-14" value="&lt;font style=&quot;font-size: 10px;&quot;&gt;15/6 10:00-11:30&lt;br&gt;&lt;/font&gt;" style="text;html=1;align=center;verticalAlign=middle;whiteSpace=wrap;rounded=0;" vertex="1" parent="1">
          <mxGeometry x="920" y="420" width="60" height="30" as="geometry" />
        </mxCell>
        <mxCell id="5XahTFnQY6GTzP8rRUWg-15" value="&lt;font style=&quot;font-size: 10px;&quot;&gt;6/6 19:30-21:00&lt;br&gt;&lt;/font&gt;" style="text;html=1;align=center;verticalAlign=middle;whiteSpace=wrap;rounded=0;" vertex="1" parent="1">
          <mxGeometry x="1280" y="210" width="60" height="30" as="geometry" />
        </mxCell>
        <mxCell id="5XahTFnQY6GTzP8rRUWg-16" value="&lt;font style=&quot;font-size: 10px;&quot;&gt;10/6 18:30-20:00&lt;br&gt;&lt;/font&gt;" style="text;html=1;align=center;verticalAlign=middle;whiteSpace=wrap;rounded=0;" vertex="1" parent="1">
          <mxGeometry x="1350" y="310" width="60" height="30" as="geometry" />
        </mxCell>
        <mxCell id="5XahTFnQY6GTzP8rRUWg-17" value="&lt;font style=&quot;font-size: 10px;&quot;&gt;8/6 10:00-11:30&lt;br&gt;&lt;/font&gt;" style="text;html=1;align=center;verticalAlign=middle;whiteSpace=wrap;rounded=0;fontStyle=0" vertex="1" parent="1">
          <mxGeometry x="1210" y="310" width="60" height="30" as="geometry" />
        </mxCell>
      </root>
    </mxGraphModel>
  </diagram>
</mxfile>
